<svg width="309" height="413" viewBox="0 0 309 413" fill="none" xmlns="http://www.w3.org/2000/svg">
<path fill-rule="evenodd" clip-rule="evenodd" d="M148.329 28.8257C151.476 32.9092 154.241 37.324 156.634 42.0566L152.837 52.6609C150.024 45.5529 146.459 39.1978 142.141 33.5956C135.781 25.3451 127.788 18.9854 118.163 14.5164C108.537 10.0474 97.2788 7.81293 84.3874 7.81293C72.6462 7.81293 62.1993 9.67594 53.0467 13.4019C62.1993 9.676 72.6462 7.81305 84.3873 7.81305C97.2787 7.81305 108.537 10.0475 118.163 14.5165C127.788 18.9855 135.781 25.3453 142.14 33.5957C146.459 39.198 150.024 45.5531 152.837 52.6611L99.2556 202.304C94.5006 202.985 89.5416 203.324 84.3874 203.324C70.4441 203.324 57.9302 200.939 47.0642 195.894C36.3229 190.907 27.329 183.761 20.1885 174.498L20.157 174.457L20.1261 174.416C13.2553 165.255 8.22074 154.434 4.90843 142.105C1.60816 129.821 0 116.32 0 101.662C0 70.5616 6.82839 45.4245 21.6087 27.3712C36.5864 8.90213 57.9055 0 84.3874 0C98.1758 0 110.599 2.39094 121.453 7.43003C132.194 12.417 141.188 19.5624 148.329 28.8257ZM181.052 267.766L186.823 266.204V219.537L177.115 221.964C173.361 222.902 169.73 223.517 166.215 223.823L166.048 223.837L165.881 223.859C162.245 224.333 158.716 224.567 155.29 224.567C147.218 224.567 139.625 223.76 132.491 222.175C124.888 220.485 117.46 218.628 110.208 216.604L110.126 216.581L110.044 216.56C102.618 214.661 95.2768 212.847 88.0201 211.119C80.3774 209.257 72.6306 208.324 64.7926 208.324C59.1119 208.324 53.5774 208.892 48.2016 210.044L42.0257 211.368V258.336L51.8944 255.645C54.9716 254.806 58.2315 254.373 61.6987 254.373C67.3343 254.373 73.4841 255.132 80.1738 256.719C87.3543 258.6 94.7912 260.566 102.485 262.618C110.342 264.713 118.45 266.631 126.808 268.374C135.627 270.389 144.695 271.39 154.001 271.39C163.123 271.39 172.146 270.179 181.052 267.766ZM84.3972 218.296C84.9961 218.43 85.5944 218.569 86.1921 218.715C93.4113 220.434 100.716 222.239 108.107 224.13C115.498 226.192 123.061 228.083 130.796 229.802C131.337 229.922 131.88 230.038 132.425 230.15C131.88 230.038 131.337 229.922 130.796 229.802C123.061 228.083 115.499 226.192 108.107 224.129C100.716 222.239 93.4114 220.434 86.1922 218.715C85.5945 218.569 84.9962 218.43 84.3972 218.296ZM179.01 229.544L179.01 260.225V229.544L179.01 229.544ZM113.828 78.5659L113.843 78.6501L113.86 78.734C115.289 85.7178 116.022 93.3522 116.022 101.662C116.022 123.221 112.582 137.097 107.127 144.872C101.795 152.468 94.5345 156.243 84.3874 156.243C78.714 156.243 74.2657 154.979 70.7176 152.777C66.9154 150.417 63.6618 147.094 60.9863 142.613C58.3903 137.975 56.3295 132.272 54.9184 125.38C53.4885 118.225 52.7529 110.328 52.7529 101.662C52.7529 80.6846 56.1704 66.9109 61.6847 58.9152L61.7024 58.8896L61.7198 58.8638C67.0999 50.9283 74.3557 47.0807 84.3874 47.0807C90.4102 47.0807 94.9461 48.4313 98.4114 50.7017L98.4915 50.7542L98.5729 50.8047C102.296 53.1155 105.438 56.4477 107.952 61.0569C110.579 65.8734 112.574 71.6722 113.828 78.5659ZM47.2604 126.929C48.8074 134.492 51.1278 141.023 54.2217 146.524C57.4875 152.024 61.6128 156.321 66.5974 159.415C67.7212 160.113 68.893 160.732 70.1129 161.272C68.893 160.732 67.7211 160.113 66.5973 159.415C61.6126 156.321 57.4874 152.024 54.2216 146.524C51.1277 141.023 48.8072 134.492 47.2603 126.929C45.7133 119.194 44.9398 110.772 44.9398 101.662C44.9398 80.1764 48.3775 64.449 55.2529 54.4797C55.3118 54.3927 55.371 54.3062 55.4303 54.2201C55.371 54.3062 55.3119 54.3927 55.253 54.4795C48.3776 64.4488 44.94 80.1763 44.94 101.662C44.94 110.772 45.7134 119.194 47.2604 126.929ZM190.256 157.431H245.688L245.688 157.43H190.255L176.591 197.394H141.269L141.268 197.394H176.591L190.256 157.431ZM195.841 165.244L182.176 205.207H130.179L200.736 7.81305H237.786L308.343 205.207H254.642L240.204 165.244H195.841ZM217.843 60.4878H219.132L219.132 60.4876H217.843L212.429 89.1064L199.28 129.07L212.429 89.1066L217.843 60.4878ZM210.075 121.257H227.114L218.539 95.5331L210.075 121.257Z" fill="#4A85DD"/>
<path opacity="0.5" d="M30.7224 352.461H27.2769V381.078H14.1649V314.082H27.2769V343.752L30.3396 342.412L48.8113 314.082H63.7418L44.2173 342.22L39.049 345.857L44.4087 349.59L66.7088 381.078H50.534L30.7224 352.461ZM139.267 325.758H113.426V381.078H100.314V314.082H139.267V325.758ZM177.647 341.837H203.392C203.201 339.285 202.659 336.956 201.765 334.851C200.936 332.681 199.787 330.831 198.32 329.3C196.852 327.768 195.034 326.588 192.864 325.758C190.695 324.865 188.238 324.419 185.495 324.419C182.049 324.419 179.05 324.801 176.498 325.567C173.946 326.269 171.872 327.066 170.277 327.96L167.502 316.858C169.735 315.709 172.542 314.752 175.924 313.986C179.306 313.157 182.655 312.742 185.973 312.742C190.376 312.742 194.428 313.348 198.128 314.561C201.893 315.773 205.115 317.783 207.795 320.59C210.539 323.334 212.676 326.939 214.207 331.405C215.739 335.808 216.504 341.199 216.504 347.58C216.504 354.216 215.611 359.767 213.825 364.233C212.038 368.7 209.645 372.273 206.646 374.953C203.648 377.632 200.202 379.547 196.31 380.695C192.418 381.844 188.366 382.418 184.155 382.418C180.518 382.418 177.2 382.099 174.201 381.461C171.266 380.823 168.905 380.089 167.119 379.259L170.564 367.87C172.032 368.572 174.01 369.242 176.498 369.88C178.987 370.454 181.858 370.741 185.112 370.741C187.6 370.741 189.897 370.39 192.003 369.689C194.109 368.987 195.959 367.902 197.554 366.434C199.213 364.903 200.553 362.989 201.574 360.692C202.595 358.395 203.233 355.619 203.488 352.365H177.647V341.837ZM271.547 343.656L273.461 352.365H274.036L275.567 343.369L285.616 314.082H299.111L281.309 360.405C279.906 364.042 278.534 367.2 277.194 369.88C275.918 372.56 274.514 374.793 272.983 376.58C271.515 378.302 269.856 379.61 268.006 380.504C266.156 381.333 263.986 381.748 261.498 381.748C259.392 381.748 257.669 381.588 256.329 381.269C255.053 381.014 253.65 380.408 252.118 379.451L255.468 368.827C256.553 369.401 257.542 369.752 258.435 369.88C259.328 370.008 260.285 370.071 261.306 370.071C264.305 370.071 266.411 367.711 267.623 362.989L242.547 314.082H257.957L271.547 343.656Z" fill="#4A85DD"/>
</svg>
